G04*
G04 #@! TF.GenerationSoftware,Altium Limited,Altium Designer,26.1.1 (7)*
G04*
G04 Layer_Color=65535*
%FSLAX25Y25*%
%MOIN*%
G70*
G04*
G04 #@! TF.SameCoordinates,28426290-D839-4271-9256-29951BD8474F*
G04*
G04*
G04 #@! TF.FilePolarity,Positive*
G04*
G01*
G75*
%ADD10C,0.00787*%
%ADD11C,0.01000*%
%ADD12C,0.00630*%
D10*
X-37402Y-12500D02*
X-7874Y-12500D01*
X21653Y-5118D02*
Y5118D01*
X2756Y-13779D02*
X12992D01*
X-5905Y-5118D02*
Y5118D01*
X-37402Y-12500D02*
Y12500D01*
X2756Y13779D02*
X12992D01*
X-37402Y12500D02*
X-7874Y12500D01*
X77165Y6890D02*
Y7677D01*
X80315Y6890D02*
Y7677D01*
X72638Y6791D02*
Y7382D01*
X69095Y6791D02*
Y7382D01*
Y7087D02*
X69488D01*
X72244D02*
X72638D01*
X80315Y-7677D02*
Y-6890D01*
X77165Y-7677D02*
Y-6890D01*
X69095Y-7087D02*
X69488D01*
X72244D02*
X72638D01*
X72638Y-7382D02*
Y-6791D01*
X69095Y-7382D02*
Y-6791D01*
X60236Y2165D02*
Y2559D01*
Y5315D02*
Y5709D01*
X59941Y5709D02*
X60532D01*
X59941Y2165D02*
X60532D01*
X59941Y-5709D02*
X60532D01*
X59941Y-2165D02*
X60532D01*
X60236Y-2559D02*
Y-2165D01*
Y-5709D02*
Y-5315D01*
X45472Y-3445D02*
Y-2854D01*
X49016Y-3445D02*
Y-2854D01*
X48622Y-3150D02*
X49016D01*
X45472D02*
X45866D01*
X37008Y-1575D02*
X37795D01*
X37008Y1575D02*
X37795D01*
X25787Y-3445D02*
Y-2854D01*
X29331Y-3445D02*
Y-2854D01*
X28937Y-3150D02*
X29331D01*
X25787D02*
X26181D01*
D11*
X-15748Y2999D02*
X-17747D01*
X-16748D01*
Y-1999D01*
X-17747Y-2999D01*
X-18747D01*
X-19747Y-1999D01*
X-13749Y-2999D02*
X-11749D01*
X-12749D01*
Y2999D01*
X-13749Y1999D01*
D12*
X57744Y21653D02*
Y17717D01*
X60368D01*
X64303D02*
X61680D01*
X64303Y20341D01*
Y20997D01*
X63648Y21653D01*
X62335D01*
X61680Y20997D01*
X68242Y-17717D02*
Y-21653D01*
X70866D01*
X72178D02*
X73490D01*
X72834D01*
Y-17717D01*
X72178Y-18373D01*
X43964Y-13780D02*
X46588Y-17716D01*
Y-13780D02*
X43964Y-17716D01*
X47900Y-14436D02*
X48556Y-13780D01*
X49868D01*
X50524Y-14436D01*
Y-15092D01*
X49868Y-15748D01*
X49212D01*
X49868D01*
X50524Y-16404D01*
Y-17060D01*
X49868Y-17716D01*
X48556D01*
X47900Y-17060D01*
X24279Y-13780D02*
X26903Y-17716D01*
Y-13780D02*
X24279Y-17716D01*
X30839D02*
X28215D01*
X30839Y-15092D01*
Y-14436D01*
X30183Y-13780D01*
X28871D01*
X28215Y-14436D01*
X34778Y13779D02*
X37402Y9843D01*
Y13779D02*
X34778Y9843D01*
X38713D02*
X40025D01*
X39369D01*
Y13779D01*
X38713Y13123D01*
X75460Y17717D02*
Y21653D01*
X77428D01*
X78084Y20997D01*
Y19685D01*
X77428Y19029D01*
X75460D01*
X76772D02*
X78084Y17717D01*
X82020D02*
X79396D01*
X82020Y20341D01*
Y20997D01*
X81364Y21653D01*
X80052D01*
X79396Y20997D01*
X76116Y-21653D02*
Y-17717D01*
X78084D01*
X78740Y-18373D01*
Y-19685D01*
X78084Y-20341D01*
X76116D01*
X77428D02*
X78740Y-21653D01*
X80052D02*
X81364D01*
X80708D01*
Y-17717D01*
X80052Y-18373D01*
X70210Y20997D02*
X69554Y21653D01*
X68242D01*
X67586Y20997D01*
Y18373D01*
X68242Y17717D01*
X69554D01*
X70210Y18373D01*
X74146Y17717D02*
X71522D01*
X74146Y20341D01*
Y20997D01*
X73490Y21653D01*
X72178D01*
X71522Y20997D01*
X61024Y-16405D02*
X60368Y-15749D01*
X59056D01*
X58400Y-16405D01*
Y-19028D01*
X59056Y-19684D01*
X60368D01*
X61024Y-19028D01*
X62335Y-19684D02*
X63648D01*
X62991D01*
Y-15749D01*
X62335Y-16405D01*
M02*
