G04*
G04 #@! TF.GenerationSoftware,Altium Limited,Altium Designer,26.1.1 (7)*
G04*
G04 Layer_Physical_Order=2*
G04 Layer_Color=16711680*
%FSLAX25Y25*%
%MOIN*%
G70*
G04*
G04 #@! TF.SameCoordinates,28426290-D839-4271-9256-29951BD8474F*
G04*
G04*
G04 #@! TF.FilePolarity,Positive*
G04*
G01*
G75*
%ADD27C,0.08858*%
%ADD28C,0.10039*%
%ADD29C,0.03937*%
G36*
X83661Y-23622D02*
X77961D01*
X77960Y-23622D01*
X77894Y-23578D01*
X76825Y-23135D01*
X76747Y-23119D01*
X76674Y-23089D01*
X75539Y-22863D01*
X75479D01*
X75421Y-22849D01*
X74843Y-22820D01*
X74823Y-22823D01*
X74803Y-22819D01*
X-58252Y-22819D01*
Y-6708D01*
X-43307Y-6708D01*
X-43288Y-6704D01*
X-43268Y-6707D01*
X-42689Y-6679D01*
X-42631Y-6664D01*
X-42572D01*
X-41436Y-6439D01*
X-41363Y-6408D01*
X-41286Y-6393D01*
X-40216Y-5950D01*
X-40150Y-5906D01*
X-40077Y-5876D01*
X-39115Y-5232D01*
X-39059Y-5177D01*
X-38993Y-5133D01*
X-38174Y-4314D01*
X-38131Y-4248D01*
X-38075Y-4192D01*
X-37431Y-3230D01*
X-37401Y-3157D01*
X-37357Y-3091D01*
X-36914Y-2021D01*
X-36899Y-1944D01*
X-36869Y-1871D01*
X-36643Y-735D01*
Y-656D01*
X-36627Y-579D01*
Y579D01*
X-36643Y656D01*
Y735D01*
X-36869Y1871D01*
X-36899Y1944D01*
X-36914Y2021D01*
X-37357Y3091D01*
X-37401Y3157D01*
X-37431Y3230D01*
X-38075Y4192D01*
X-38131Y4248D01*
X-38174Y4314D01*
X-38993Y5133D01*
X-39059Y5177D01*
X-39115Y5232D01*
X-40077Y5876D01*
X-40150Y5906D01*
X-40216Y5950D01*
X-41286Y6393D01*
X-41363Y6408D01*
X-41436Y6439D01*
X-42572Y6664D01*
X-42631D01*
X-42689Y6679D01*
X-43268Y6707D01*
X-43288Y6704D01*
X-43307Y6708D01*
X-45276D01*
X-58252Y6708D01*
Y22819D01*
X74803Y22819D01*
X74823Y22823D01*
X74843Y22820D01*
X75421Y22849D01*
X75479Y22863D01*
X75539D01*
X76674Y23089D01*
X76747Y23119D01*
X76825Y23135D01*
X77894Y23578D01*
X77960Y23622D01*
X77961Y23622D01*
X83661D01*
Y-23622D01*
D02*
G37*
%LPC*%
G36*
X18587Y15420D02*
X18074D01*
Y10200D01*
X23294D01*
Y10713D01*
X22924Y12092D01*
X22211Y13328D01*
X21202Y14337D01*
X19966Y15050D01*
X18587Y15420D01*
D02*
G37*
G36*
X-1412D02*
X-1926D01*
Y10200D01*
X3294D01*
Y10713D01*
X2924Y12092D01*
X2211Y13328D01*
X1202Y14337D01*
X-34Y15050D01*
X-1412Y15420D01*
D02*
G37*
G36*
X17674D02*
X17161D01*
X15782Y15050D01*
X14546Y14337D01*
X13537Y13328D01*
X12824Y12092D01*
X12454Y10713D01*
Y10200D01*
X17674D01*
Y15420D01*
D02*
G37*
G36*
X-2326D02*
X-2840D01*
X-4218Y15050D01*
X-5454Y14337D01*
X-6463Y13328D01*
X-7176Y12092D01*
X-7546Y10713D01*
Y10200D01*
X-2326D01*
Y15420D01*
D02*
G37*
G36*
X23294Y9800D02*
X18074D01*
Y4580D01*
X18587D01*
X19966Y4950D01*
X21202Y5663D01*
X22211Y6672D01*
X22924Y7908D01*
X23294Y9286D01*
Y9800D01*
D02*
G37*
G36*
X17674D02*
X12454D01*
Y9286D01*
X12824Y7908D01*
X13537Y6672D01*
X14546Y5663D01*
X15782Y4950D01*
X17161Y4580D01*
X17674D01*
Y9800D01*
D02*
G37*
G36*
X3294D02*
X-1926D01*
Y4580D01*
X-1412D01*
X-34Y4950D01*
X1202Y5663D01*
X2211Y6672D01*
X2924Y7908D01*
X3294Y9286D01*
Y9800D01*
D02*
G37*
G36*
X-2326D02*
X-7546D01*
Y9286D01*
X-7176Y7908D01*
X-6463Y6672D01*
X-5454Y5663D01*
X-4218Y4950D01*
X-2840Y4580D01*
X-2326D01*
Y9800D01*
D02*
G37*
G36*
X8561Y5217D02*
X7187D01*
X5861Y4861D01*
X4671Y4174D01*
X3700Y3203D01*
X3013Y2014D01*
X2657Y687D01*
Y-687D01*
X3013Y-2014D01*
X3700Y-3203D01*
X4671Y-4174D01*
X5861Y-4861D01*
X7187Y-5217D01*
X8561D01*
X9888Y-4861D01*
X11077Y-4174D01*
X12048Y-3203D01*
X12735Y-2014D01*
X13091Y-687D01*
Y687D01*
X12735Y2014D01*
X12048Y3203D01*
X11077Y4174D01*
X9888Y4861D01*
X8561Y5217D01*
D02*
G37*
G36*
X-1412Y-4580D02*
X-1926D01*
Y-9800D01*
X3294D01*
Y-9286D01*
X2924Y-7908D01*
X2211Y-6672D01*
X1202Y-5663D01*
X-34Y-4950D01*
X-1412Y-4580D01*
D02*
G37*
G36*
X18587D02*
X18074D01*
Y-9800D01*
X23294D01*
Y-9286D01*
X22924Y-7908D01*
X22211Y-6672D01*
X21202Y-5663D01*
X19966Y-4950D01*
X18587Y-4580D01*
D02*
G37*
G36*
X-2326D02*
X-2840D01*
X-4218Y-4950D01*
X-5454Y-5663D01*
X-6463Y-6672D01*
X-7176Y-7908D01*
X-7546Y-9286D01*
Y-9800D01*
X-2326D01*
Y-4580D01*
D02*
G37*
G36*
X17674D02*
X17161D01*
X15782Y-4950D01*
X14546Y-5663D01*
X13537Y-6672D01*
X12824Y-7908D01*
X12454Y-9286D01*
Y-9800D01*
X17674D01*
Y-4580D01*
D02*
G37*
G36*
X23294Y-10200D02*
X18074D01*
Y-15420D01*
X18587D01*
X19966Y-15050D01*
X21202Y-14337D01*
X22211Y-13328D01*
X22924Y-12092D01*
X23294Y-10713D01*
Y-10200D01*
D02*
G37*
G36*
X17674D02*
X12454D01*
Y-10713D01*
X12824Y-12092D01*
X13537Y-13328D01*
X14546Y-14337D01*
X15782Y-15050D01*
X17161Y-15420D01*
X17674D01*
Y-10200D01*
D02*
G37*
G36*
X3294D02*
X-1926D01*
Y-15420D01*
X-1412D01*
X-34Y-15050D01*
X1202Y-14337D01*
X2211Y-13328D01*
X2924Y-12092D01*
X3294Y-10713D01*
Y-10200D01*
D02*
G37*
G36*
X-2326D02*
X-7546D01*
Y-10713D01*
X-7176Y-12092D01*
X-6463Y-13328D01*
X-5454Y-14337D01*
X-4218Y-15050D01*
X-2840Y-15420D01*
X-2326D01*
Y-10200D01*
D02*
G37*
%LPD*%
D27*
X7874Y0D02*
D03*
D28*
X17874Y-10000D02*
D03*
X-2126D02*
D03*
Y10000D02*
D03*
X17874D02*
D03*
D29*
X9843Y19685D02*
D03*
Y-19685D02*
D03*
X-5906Y19685D02*
D03*
Y-19685D02*
D03*
X-21654D02*
D03*
Y19685D02*
D03*
X53150Y-19685D02*
D03*
Y19685D02*
D03*
X-37402Y11811D02*
D03*
X-55118D02*
D03*
Y-11811D02*
D03*
X-37402D02*
D03*
X-31496Y0D02*
D03*
X-37402Y19685D02*
D03*
Y-19685D02*
D03*
X-55118D02*
D03*
Y19685D02*
D03*
X59055Y-11811D02*
D03*
X55118Y9843D02*
D03*
X64961Y15748D02*
D03*
Y9843D02*
D03*
X70866Y15748D02*
D03*
X78740D02*
D03*
Y-15748D02*
D03*
X70866D02*
D03*
X64961Y-11811D02*
D03*
X53150Y-7874D02*
D03*
X47244Y-11811D02*
D03*
X41339D02*
D03*
X37402Y5906D02*
D03*
X43307D02*
D03*
X49213D02*
D03*
X31496D02*
D03*
X25591D02*
D03*
X41339Y-5906D02*
D03*
X33465D02*
D03*
M02*
