G04*
G04 #@! TF.GenerationSoftware,Altium Limited,Altium Designer,26.1.1 (7)*
G04*
G04 Layer_Color=16711935*
%FSLAX25Y25*%
%MOIN*%
G70*
G04*
G04 #@! TF.SameCoordinates,28426290-D839-4271-9256-29951BD8474F*
G04*
G04*
G04 #@! TF.FilePolarity,Negative*
G04*
G01*
G75*
%ADD23C,0.09449*%
%ADD24C,0.10630*%
%ADD25C,0.04528*%
D23*
X7874Y0D02*
D03*
D24*
X17874Y-10000D02*
D03*
X-2126D02*
D03*
Y10000D02*
D03*
X17874D02*
D03*
D25*
X9843Y19685D02*
D03*
Y-19685D02*
D03*
X-5906Y19685D02*
D03*
Y-19685D02*
D03*
X-21654D02*
D03*
Y19685D02*
D03*
X53150Y-19685D02*
D03*
Y19685D02*
D03*
X-37402Y11811D02*
D03*
X-55118D02*
D03*
Y-11811D02*
D03*
X-37402D02*
D03*
X-31496Y0D02*
D03*
X-37402Y19685D02*
D03*
Y-19685D02*
D03*
X-55118D02*
D03*
Y19685D02*
D03*
X59055Y-11811D02*
D03*
X55118Y9843D02*
D03*
X64961Y15748D02*
D03*
Y9843D02*
D03*
X70866Y15748D02*
D03*
X78740D02*
D03*
Y-15748D02*
D03*
X70866D02*
D03*
X64961Y-11811D02*
D03*
X53150Y-7874D02*
D03*
X47244Y-11811D02*
D03*
X41339D02*
D03*
X37402Y5906D02*
D03*
X43307D02*
D03*
X49213D02*
D03*
X31496D02*
D03*
X25591D02*
D03*
X41339Y-5906D02*
D03*
X33465D02*
D03*
M02*
