G04*
G04 #@! TF.GenerationSoftware,Altium Limited,Altium Designer,26.1.1 (7)*
G04*
G04 Layer_Color=16711935*
%FSLAX25Y25*%
%MOIN*%
G70*
G04*
G04 #@! TF.SameCoordinates,28426290-D839-4271-9256-29951BD8474F*
G04*
G04*
G04 #@! TF.FilePolarity,Positive*
G04*
G01*
G75*
%ADD11C,0.01000*%
D11*
X-43307Y-5906D02*
G03*
X-43307Y5906I0J5906D01*
G01*
X108268D02*
G03*
X108268Y-5906I0J-5906D01*
G01*
Y-23622D02*
G03*
X102362Y-29528I0J-5906D01*
G01*
X102362Y29528D02*
G03*
X108268Y23622I5906J0D01*
G01*
X74803Y23622D02*
G03*
X80709Y29528I-0J5906D01*
G01*
X80709Y-29528D02*
G03*
X74803Y-23622I-5906J-0D01*
G01*
X-59055Y5906D02*
Y23622D01*
Y-23622D02*
Y-5906D01*
Y5906D02*
X-45276Y5906D01*
X-59055Y-5906D02*
X-43307Y-5906D01*
X-45276Y5906D02*
X-43307D01*
X108268Y-5906D02*
X110236D01*
X108268Y5906D02*
X124016D01*
X110236Y-5906D02*
X124016D01*
Y-23622D02*
Y-5906D01*
Y5906D02*
Y23622D01*
X108268Y23622D02*
X124016D01*
X108268Y-23622D02*
X124016D01*
X102362Y-59055D02*
Y-29528D01*
X102362Y29528D02*
Y59055D01*
X-59055Y23622D02*
X74803Y23622D01*
X80709Y29528D02*
Y59055D01*
Y-59055D02*
Y-29528D01*
X-59055Y-23622D02*
X74803Y-23622D01*
X80709Y-59055D02*
X102362D01*
X80709Y59055D02*
X102362D01*
M02*
