G04*
G04 #@! TF.GenerationSoftware,Altium Limited,Altium Designer,26.1.1 (7)*
G04*
G04 Layer_Physical_Order=1*
G04 Layer_Color=255*
%FSLAX25Y25*%
%MOIN*%
G70*
G04*
G04 #@! TF.SameCoordinates,28426290-D839-4271-9256-29951BD8474F*
G04*
G04*
G04 #@! TF.FilePolarity,Positive*
G04*
G01*
G75*
%ADD13R,0.03937X0.03543*%
%ADD14R,0.03937X0.03937*%
G04:AMPARAMS|DCode=15|XSize=551.18mil|YSize=137.8mil|CornerRadius=34.45mil|HoleSize=0mil|Usage=FLASHONLY|Rotation=90.000|XOffset=0mil|YOffset=0mil|HoleType=Round|Shape=RoundedRectangle|*
%AMROUNDEDRECTD15*
21,1,0.55118,0.06890,0,0,90.0*
21,1,0.48228,0.13780,0,0,90.0*
1,1,0.06890,0.03445,0.24114*
1,1,0.06890,0.03445,-0.24114*
1,1,0.06890,-0.03445,-0.24114*
1,1,0.06890,-0.03445,0.24114*
%
%ADD15ROUNDEDRECTD15*%
%ADD16R,0.03937X0.03937*%
%ADD17R,0.03543X0.03937*%
%ADD26C,0.04291*%
%ADD27C,0.08858*%
%ADD28C,0.10039*%
%ADD29C,0.03937*%
G36*
X83661Y6895D02*
X73739D01*
X73235Y7868D01*
X73235Y8077D01*
Y10036D01*
X68498D01*
Y8077D01*
X68498Y7868D01*
X67994Y6895D01*
X63386D01*
X62620Y6795D01*
X62375Y6693D01*
X59842Y6693D01*
X59449Y6693D01*
X58098D01*
X57852Y6795D01*
X57087Y6895D01*
X56321Y6795D01*
X56076Y6693D01*
X54331D01*
Y4948D01*
X54229Y4703D01*
X54128Y3937D01*
Y2958D01*
X40748D01*
X39982Y2858D01*
X39737Y2756D01*
X38189D01*
Y2158D01*
X37018Y1703D01*
X37001Y1706D01*
X36614Y2129D01*
Y2756D01*
X35066D01*
X34821Y2858D01*
X34055Y2958D01*
X12190D01*
X12048Y3203D01*
X11077Y4174D01*
X9888Y4861D01*
X8561Y5217D01*
X7187D01*
X5861Y4861D01*
X4671Y4174D01*
X3700Y3203D01*
X3013Y2014D01*
X2657Y687D01*
Y-687D01*
X3013Y-2014D01*
X3700Y-3203D01*
X4671Y-4174D01*
X5861Y-4861D01*
X7187Y-5217D01*
X8561D01*
X9888Y-4861D01*
X11077Y-4174D01*
X12048Y-3203D01*
X12190Y-2958D01*
X24687D01*
X25190Y-3931D01*
X25191Y-4140D01*
Y-6099D01*
X27559D01*
X29928D01*
Y-4140D01*
X29928Y-3931D01*
X30432Y-2958D01*
X34055D01*
X34821Y-2858D01*
X35066Y-2756D01*
X36614D01*
Y-2158D01*
X37785Y-1703D01*
X37802Y-1706D01*
X38189Y-2129D01*
Y-2756D01*
X39737D01*
X39982Y-2858D01*
X40748Y-2958D01*
X44372D01*
X44876Y-3931D01*
X44876Y-4140D01*
Y-6099D01*
X47244D01*
Y-6299D01*
D01*
Y-6099D01*
X49613D01*
Y-4140D01*
X49613Y-3931D01*
X50117Y-2958D01*
X54128D01*
Y-3937D01*
X54229Y-4703D01*
X54331Y-4948D01*
Y-6693D01*
X56076D01*
X56321Y-6795D01*
X57087Y-6895D01*
X57852Y-6795D01*
X58098Y-6693D01*
X60630Y-6693D01*
X61024Y-6693D01*
X62375D01*
X62620Y-6795D01*
X63386Y-6895D01*
X67994D01*
X68498Y-7868D01*
X68498Y-8077D01*
Y-10036D01*
X70866D01*
X73235D01*
Y-8077D01*
X73235Y-7868D01*
X73739Y-6895D01*
X83661D01*
Y-23622D01*
X77961D01*
X77960Y-23622D01*
X77894Y-23578D01*
X76825Y-23135D01*
X76747Y-23119D01*
X76674Y-23089D01*
X75539Y-22863D01*
X75479D01*
X75421Y-22849D01*
X74843Y-22820D01*
X74823Y-22823D01*
X74803Y-22819D01*
X-58252Y-22819D01*
Y-6708D01*
X-43307Y-6708D01*
X-43288Y-6704D01*
X-43268Y-6707D01*
X-42689Y-6679D01*
X-42631Y-6664D01*
X-42572D01*
X-41436Y-6439D01*
X-41363Y-6408D01*
X-41286Y-6393D01*
X-40216Y-5950D01*
X-40150Y-5906D01*
X-40077Y-5876D01*
X-39115Y-5232D01*
X-39059Y-5177D01*
X-38993Y-5133D01*
X-38174Y-4314D01*
X-38131Y-4248D01*
X-38075Y-4192D01*
X-37431Y-3230D01*
X-37401Y-3157D01*
X-37357Y-3091D01*
X-36914Y-2021D01*
X-36899Y-1944D01*
X-36869Y-1871D01*
X-36643Y-735D01*
Y-656D01*
X-36627Y-579D01*
Y579D01*
X-36643Y656D01*
Y735D01*
X-36869Y1871D01*
X-36899Y1944D01*
X-36914Y2021D01*
X-37357Y3091D01*
X-37401Y3157D01*
X-37431Y3230D01*
X-38075Y4192D01*
X-38131Y4248D01*
X-38174Y4314D01*
X-38993Y5133D01*
X-39059Y5177D01*
X-39115Y5232D01*
X-40077Y5876D01*
X-40150Y5906D01*
X-40216Y5950D01*
X-41286Y6393D01*
X-41363Y6408D01*
X-41436Y6439D01*
X-42572Y6664D01*
X-42631D01*
X-42689Y6679D01*
X-43268Y6707D01*
X-43288Y6704D01*
X-43307Y6708D01*
X-45276D01*
X-58252Y6708D01*
Y22819D01*
X74803Y22819D01*
X74823Y22823D01*
X74843Y22820D01*
X75421Y22849D01*
X75479Y22863D01*
X75539D01*
X76674Y23089D01*
X76747Y23119D01*
X76825Y23135D01*
X77894Y23578D01*
X77960Y23622D01*
X77961Y23622D01*
X83661D01*
Y6895D01*
D02*
G37*
%LPC*%
G36*
X81109Y12802D02*
X78940D01*
Y10830D01*
X81109D01*
Y12802D01*
D02*
G37*
G36*
X78540D02*
X76372D01*
Y10830D01*
X78540D01*
Y12802D01*
D02*
G37*
G36*
X73235Y12605D02*
X71066D01*
Y10436D01*
X73235D01*
Y12605D01*
D02*
G37*
G36*
X70666D02*
X68498D01*
Y10436D01*
X70666D01*
Y12605D01*
D02*
G37*
G36*
X18587Y15420D02*
X18074D01*
Y10200D01*
X23294D01*
Y10713D01*
X22924Y12092D01*
X22211Y13328D01*
X21202Y14337D01*
X19966Y15050D01*
X18587Y15420D01*
D02*
G37*
G36*
X-1412D02*
X-1926D01*
Y10200D01*
X3294D01*
Y10713D01*
X2924Y12092D01*
X2211Y13328D01*
X1202Y14337D01*
X-34Y15050D01*
X-1412Y15420D01*
D02*
G37*
G36*
X17674D02*
X17161D01*
X15782Y15050D01*
X14546Y14337D01*
X13537Y13328D01*
X12824Y12092D01*
X12454Y10713D01*
Y10200D01*
X17674D01*
Y15420D01*
D02*
G37*
G36*
X-2326D02*
X-2840D01*
X-4218Y15050D01*
X-5454Y14337D01*
X-6463Y13328D01*
X-7176Y12092D01*
X-7546Y10713D01*
Y10200D01*
X-2326D01*
Y15420D01*
D02*
G37*
G36*
X81109Y10430D02*
X78940D01*
Y8458D01*
X81109D01*
Y10430D01*
D02*
G37*
G36*
X78540D02*
X76372D01*
Y8458D01*
X78540D01*
Y10430D01*
D02*
G37*
G36*
X23294Y9800D02*
X18074D01*
Y4580D01*
X18587D01*
X19966Y4950D01*
X21202Y5663D01*
X22211Y6672D01*
X22924Y7908D01*
X23294Y9286D01*
Y9800D01*
D02*
G37*
G36*
X17674D02*
X12454D01*
Y9286D01*
X12824Y7908D01*
X13537Y6672D01*
X14546Y5663D01*
X15782Y4950D01*
X17161Y4580D01*
X17674D01*
Y9800D01*
D02*
G37*
G36*
X3294D02*
X-1926D01*
Y4580D01*
X-1412D01*
X-34Y4950D01*
X1202Y5663D01*
X2211Y6672D01*
X2924Y7908D01*
X3294Y9286D01*
Y9800D01*
D02*
G37*
G36*
X-2326D02*
X-7546D01*
Y9286D01*
X-7176Y7908D01*
X-6463Y6672D01*
X-5454Y5663D01*
X-4218Y4950D01*
X-2840Y4580D01*
X-2326D01*
Y9800D01*
D02*
G37*
G36*
X49613Y-6499D02*
X47444D01*
Y-8668D01*
X49613D01*
Y-6499D01*
D02*
G37*
G36*
X47044D02*
X44876D01*
Y-8668D01*
X47044D01*
Y-6499D01*
D02*
G37*
G36*
X29928Y-6499D02*
X27759D01*
Y-8668D01*
X29928D01*
Y-6499D01*
D02*
G37*
G36*
X27359D02*
X25191D01*
Y-8668D01*
X27359D01*
Y-6499D01*
D02*
G37*
G36*
X-1412Y-4580D02*
X-1926D01*
Y-9800D01*
X3294D01*
Y-9286D01*
X2924Y-7908D01*
X2211Y-6672D01*
X1202Y-5663D01*
X-34Y-4950D01*
X-1412Y-4580D01*
D02*
G37*
G36*
X18587D02*
X18074D01*
Y-9800D01*
X23294D01*
Y-9286D01*
X22924Y-7908D01*
X22211Y-6672D01*
X21202Y-5663D01*
X19966Y-4950D01*
X18587Y-4580D01*
D02*
G37*
G36*
X-2326D02*
X-2840D01*
X-4218Y-4950D01*
X-5454Y-5663D01*
X-6463Y-6672D01*
X-7176Y-7908D01*
X-7546Y-9286D01*
Y-9800D01*
X-2326D01*
Y-4580D01*
D02*
G37*
G36*
X17674D02*
X17161D01*
X15782Y-4950D01*
X14546Y-5663D01*
X13537Y-6672D01*
X12824Y-7908D01*
X12454Y-9286D01*
Y-9800D01*
X17674D01*
Y-4580D01*
D02*
G37*
G36*
X81109Y-8458D02*
X78940D01*
Y-10430D01*
X81109D01*
Y-8458D01*
D02*
G37*
G36*
X78540D02*
X76372D01*
Y-10430D01*
X78540D01*
Y-8458D01*
D02*
G37*
G36*
X73235Y-10436D02*
X71066D01*
Y-12605D01*
X73235D01*
Y-10436D01*
D02*
G37*
G36*
X70666D02*
X68498D01*
Y-12605D01*
X70666D01*
Y-10436D01*
D02*
G37*
G36*
X81109Y-10830D02*
X78940D01*
Y-12802D01*
X81109D01*
Y-10830D01*
D02*
G37*
G36*
X78540D02*
X76372D01*
Y-12802D01*
X78540D01*
Y-10830D01*
D02*
G37*
G36*
X23294Y-10200D02*
X18074D01*
Y-15420D01*
X18587D01*
X19966Y-15050D01*
X21202Y-14337D01*
X22211Y-13328D01*
X22924Y-12092D01*
X23294Y-10713D01*
Y-10200D01*
D02*
G37*
G36*
X17674D02*
X12454D01*
Y-10713D01*
X12824Y-12092D01*
X13537Y-13328D01*
X14546Y-14337D01*
X15782Y-15050D01*
X17161Y-15420D01*
X17674D01*
Y-10200D01*
D02*
G37*
G36*
X3294D02*
X-1926D01*
Y-15420D01*
X-1412D01*
X-34Y-15050D01*
X1202Y-14337D01*
X2211Y-13328D01*
X2924Y-12092D01*
X3294Y-10713D01*
Y-10200D01*
D02*
G37*
G36*
X-2326D02*
X-7546D01*
Y-10713D01*
X-7176Y-12092D01*
X-6463Y-13328D01*
X-5454Y-14337D01*
X-4218Y-15050D01*
X-2840Y-15420D01*
X-2326D01*
Y-10200D01*
D02*
G37*
%LPD*%
D13*
X78740Y3937D02*
D03*
Y10630D02*
D03*
Y-3937D02*
D03*
Y-10630D02*
D03*
D14*
X70866Y3937D02*
D03*
Y10236D02*
D03*
Y-10236D02*
D03*
Y-3937D02*
D03*
X47244Y0D02*
D03*
Y-6299D02*
D03*
X27559Y0D02*
D03*
Y-6299D02*
D03*
D15*
X92520Y-29528D02*
D03*
Y29528D02*
D03*
D16*
X63386Y3937D02*
D03*
X57087D02*
D03*
Y-3937D02*
D03*
X63386D02*
D03*
D17*
X40748Y0D02*
D03*
X34055D02*
D03*
D26*
X87875Y4916D02*
X92520Y9561D01*
X86609Y4916D02*
X87875D01*
X85630Y3937D02*
X86609Y4916D01*
X92520Y9561D02*
Y29528D01*
X78740Y3937D02*
X85630D01*
X70866D02*
X78740D01*
X63386D02*
X70866D01*
X86609Y-4916D02*
X87875D01*
X78740Y-3937D02*
X85630D01*
X92520Y-29528D02*
Y-9561D01*
X87875Y-4916D02*
X92520Y-9561D01*
X85630Y-3937D02*
X86609Y-4916D01*
X70866Y-3937D02*
X78740D01*
X63386D02*
X70866D01*
X40748Y0D02*
X47244D01*
X57087D01*
Y-3937D02*
Y3937D01*
X27559Y0D02*
X34055D01*
X7874D02*
X27559D01*
D27*
X7874D02*
D03*
D28*
X17874Y-10000D02*
D03*
X-2126D02*
D03*
Y10000D02*
D03*
X17874D02*
D03*
D29*
X9843Y19685D02*
D03*
Y-19685D02*
D03*
X-5906Y19685D02*
D03*
Y-19685D02*
D03*
X-21654D02*
D03*
Y19685D02*
D03*
X53150Y-19685D02*
D03*
Y19685D02*
D03*
X-37402Y11811D02*
D03*
X-55118D02*
D03*
Y-11811D02*
D03*
X-37402D02*
D03*
X-31496Y0D02*
D03*
X-37402Y19685D02*
D03*
Y-19685D02*
D03*
X-55118D02*
D03*
Y19685D02*
D03*
X59055Y-11811D02*
D03*
X55118Y9843D02*
D03*
X64961Y15748D02*
D03*
Y9843D02*
D03*
X70866Y15748D02*
D03*
X78740D02*
D03*
Y-15748D02*
D03*
X70866D02*
D03*
X64961Y-11811D02*
D03*
X53150Y-7874D02*
D03*
X47244Y-11811D02*
D03*
X41339D02*
D03*
X37402Y5906D02*
D03*
X43307D02*
D03*
X49213D02*
D03*
X31496D02*
D03*
X25591D02*
D03*
X41339Y-5906D02*
D03*
X33465D02*
D03*
M02*
