M48
;Layer_Color=9474304
;FILE_FORMAT=2:4
INCH,TZ
;TYPE=PLATED
T01F00S00C0.0157
T02F00S00C0.0591
T03F00S00C0.0669
%
T01
X3346Y-591
X4134
Y-1181
X4724
X5315Y-787
X5906Y-1181
X6496
X7087Y-1575
X7874
X5315Y-1969
X4921Y591
X4331
X3740
X3150
X2559
X5512Y984
X6496
Y1575
X7087
X7874
X5315Y1969
X984
X-591
X-2165
X-3740
Y1181
X-3150Y0
X-3740Y-1181
Y-1969
X-2165
X-591
X984
X-5512
Y-1181
Y1181
Y1969
T02
X787Y0
T03
X-213Y-1000
X1787
Y1000
X-213
M30
